nColumns=19
nRows=49
DataType=double
version=3
OpenSimVersion=4.1
endheader
time	ground_force_1_vx	ground_force_1_vy	ground_force_1_vz	ground_force_1_px	ground_force_1_py	ground_force_1_pz	ground_force_1_mx	ground_force_1_my	ground_force_1_mz	ground_force_2_vx	ground_force_2_vy	ground_force_2_vz	ground_force_2_px	ground_force_2_py	ground_force_2_pz	ground_force_2_mx	ground_force_2_my	ground_force_2_mz
0.52	-9.70643	22.0334	-4.23776	1.06404	0	-0.301163	-0	0.034027	-0	0	0	0	-0.000180454	0	-0.000706785	0	0	0
0.53	-24.1145	77.2213	-10.9812	1.05263	0	-0.304598	-0	2.35627	-0	0	0	0	-0.000180454	0	-0.000706785	0	0	0
0.54	-35.0391	212.078	-21.3278	1.0492	0	-0.308647	-0	4.85144	-0	0	0	0	-0.000180454	0	-0.000706785	0	0	0
0.55	-28.5372	450.992	-30.8419	1.04136	0	-0.314216	-0	6.75929	-0	0	0	0	-0.000180454	0	-0.000706785	0	0	0
0.56	-23.3184	738.884	-30.7058	1.03157	0	-0.320087	-0	7.42267	-0	0	0	0	-0.000180454	0	-0.000706785	0	0	0
0.57	-48.88	964.51	-17.4552	1.02617	0	-0.324904	-0	6.62707	-0	0	0	0	-0.000180454	0	-0.000706785	0	0	0
0.58	-106.911	1108.25	-0.666763	1.02367	0	-0.328891	-0	4.71517	-0	0	0	0	-0.000180454	0	-0.000706785	0	0	0
0.59	-159.759	1241.75	9.20167	1.01619	0	-0.332679	-0	2.37924	-0	0	0	0	-0.000180454	0	-0.000706785	0	0	0
0.6	-175.055	1406.78	14.4081	0.999358	0	-0.335075	-0	0.315618	-0	0	0	0	-0.000180454	0	-0.000706785	0	0	0
0.61	-156.808	1576.26	20.7385	0.977176	0	-0.335723	0	-1.01165	0	0	0	0	-0.000180454	0	-0.000706785	0	0	0
0.62	-121.284	1705.17	26.5043	0.954641	0	-0.335922	0	-1.44779	0	0	0	0	-0.000180454	0	-0.000706785	0	0	0
0.63	-84.1793	1774.43	28.9136	0.933715	0	-0.336458	0	-1.13655	0	0	0	0	-0.000180454	0	-0.000706785	0	0	0
0.64	-48.0446	1789.98	29.8827	0.913109	0	-0.336932	0	-0.441775	0	0	0	0	-0.000180454	0	-0.000706785	0	0	0
0.65	-9.93157	1762.33	31.4156	0.891764	0	-0.337289	-0	0.199228	-0	0	0	0	-0.000180454	0	-0.000706785	0	0	0
0.66	30.6447	1696.87	33.7654	0.870295	0	-0.337848	-0	0.438579	-0	0	0	0	-0.000180454	0	-0.000706785	0	0	0
0.67	73.2565	1598.96	37.5382	0.848459	0	-0.338665	-0	0.13413	-0	0	0	0	-0.000180454	0	-0.000706785	0	0	0
0.68	115.615	1472.93	42.8411	0.825625	0	-0.339806	0	-0.61536	0	0	0	0	-0.000180454	0	-0.000706785	0	0	0
0.69	150.006	1320.3	48.0398	0.802645	0	-0.341374	0	-1.52652	0	0	0	0	-0.000180454	0	-0.000706785	0	0	0
0.7	172.828	1146.08	50.6366	0.78002	0	-0.343315	0	-2.25725	0	0	0	0	-0.000180454	0	-0.000706785	0	0	0
0.71	185.061	959.796	49.3927	0.757018	0	-0.345243	0	-2.54471	0	0	0	0	-0.000180454	0	-0.000706785	0	0	0
0.72	183.943	772.965	45.1736	0.733835	0	-0.346589	0	-2.29228	0	0	0	0	-0.000180454	0	-0.000706785	0	0	0
0.73	166.977	597.616	39.3406	0.711732	0	-0.347192	0	-1.57845	0	0	0	0	-0.000180454	0	-0.000706785	0	0	0
0.74	140.483	443.696	32.5381	0.69114	0	-0.347481	0	-0.608023	0	0	0	0	-0.000180454	0	-0.000706785	0	0	0
0.75	113.331	315.919	25.4882	0.67207	0	-0.347346	-0	0.361276	-0	0	0	0	-0.000180454	0	-0.000706785	0	0	0
0.76	88.5608	213.903	19.2182	0.656289	0	-0.345441	-0	1.09631	-0	0	0	0	-0.000180454	0	-0.000706785	0	0	0
0.77	65.127	134.82	13.9437	0.645455	0	-0.340571	-0	1.4532	-0	0	0	0	-0.000180454	0	-0.000706785	0	0	0
0.78	42.4243	76.0731	9.24917	0.641635	0	-0.333099	-0	1.41105	-0	0	0	0	-0.000180454	0	-0.000706785	0	0	0
0.79	22.4242	36.7365	5.2975	0.657503	0	-0.321941	-0	1.07021	-0	0	0	0	-0.000180454	0	-0.000706785	0	0	0
0.8	8.51111	14.9409	2.66885	0.724495	0	-0.299502	-0	0.622693	-0	0	0	0	-0.000180454	0	-0.000706785	0	0	0
0.81	0	0	0	-0.000180454	0	-0.000706785	0	0	0	0	0	0	-0.000180454	0	-0.000706785	0	0	0
0.82	0	0	0	-0.000180454	0	-0.000706785	0	0	0	0	0	0	-0.000180454	0	-0.000706785	0	0	0
0.83	0	0	0	-0.000180454	0	-0.000706785	0	0	0	0	0	0	-0.000180454	0	-0.000706785	0	0	0
0.84	0	0	0	-0.000180454	0	-0.000706785	0	0	0	0	0	0	-0.000180454	0	-0.000706785	0	0	0
0.85	0	0	0	-0.000180454	0	-0.000706785	0	0	0	0	0	0	-0.000180454	0	-0.000706785	0	0	0
0.86	0	0	0	-0.000180454	0	-0.000706785	0	0	0	0	0	0	-0.000180454	0	-0.000706785	0	0	0
0.87	0	0	0	-0.000180454	0	-0.000706785	0	0	0	-6.00959	15.0225	0.913313	1.04825	0	-0.346283	-0	1.00786	-0
0.88	0	0	0	-0.000180454	0	-0.000706785	0	0	0	-20.3545	56.3504	3.44661	1.09466	0	-0.376236	0	-0.752838	0
0.89	0	0	0	-0.000180454	0	-0.000706785	0	0	0	-40.1115	172.286	10.1344	1.10851	0	-0.383352	0	-3.1757	0
0.9	0	0	0	-0.000180454	0	-0.000706785	0	0	0	-50.4343	403.1	22.2706	1.1065	0	-0.381128	0	-5.60417	0
0.91	0	0	0	-0.000180454	0	-0.000706785	0	0	0	-58.2336	715.117	35.2185	1.09933	0	-0.374647	0	-7.24183	0
0.92	0	0	0	-0.000180454	0	-0.000706785	0	0	0	-88.1643	978.28	37.387	1.0953	0	-0.369003	0	-7.53658	0
0.93	0	0	0	-0.000180454	0	-0.000706785	0	0	0	-141.307	1115.9	23.1784	1.09264	0	-0.368664	0	-6.49984	0
0.94	0	0	0	-0.000180454	0	-0.000706785	0	0	0	-201.114	1204.14	5.42394	1.08536	0	-0.371644	0	-4.69388	0
0.95	0	0	0	-0.000180454	0	-0.000706785	0	0	0	-233.043	1344.87	0.256856	1.06855	0	-0.371153	0	-2.85876	0
0.96	0	0	0	-0.000180454	0	-0.000706785	0	0	0	-216.74	1532.04	5.23657	1.04409	0	-0.368434	0	-1.49487	0
0.97	0	0	0	-0.000180454	0	-0.000706785	0	0	0	-173.736	1684.97	8.29553	1.02011	0	-0.36784	0	-0.723049	0
0.98	0	0	0	-0.000180454	0	-0.000706785	0	0	0	-137.453	1759.6	7.16327	0.999904	0	-0.369109	0	-0.399423	0
0.99	0	0	0	-0.000180454	0	-0.000706785	0	0	0	-106.92	1769.91	6.4254	0.980226	0	-0.370252	0	-0.26125	0
1	0	0	0	-0.000180454	0	-0.000706785	0	0	0	-71.984	1735.49	7.31887	0.959548	0	-0.371167	0	-0.005818	0
